<svg width="45" height="45" viewBox="0 0 45 45" fill="none" xmlns="http://www.w3.org/2000/svg">
<path d="M9.62891 21.5999L8.16641 23.0624L7.61797 22.514C7.37422 22.2702 7.00859 22.2702 6.76484 22.514C6.52109 22.7577 6.52109 23.1233 6.76484 23.3671L7.43516 24.0374C7.61797 24.2202 7.92266 24.3421 8.16641 24.3421C8.41016 24.3421 8.71484 24.2202 8.89766 24.0374L10.4211 22.514C10.6648 22.2702 10.6648 21.9046 10.4211 21.6608C10.2383 21.3562 9.81172 21.3562 9.62891 21.5999Z" fill="#29388D"/>
<path d="M12.6133 23.489H23.7039C24.0695 23.489 24.3133 23.2453 24.3133 22.8796C24.3133 22.514 24.0695 22.2703 23.7039 22.2703H12.6133C12.2477 22.2703 12.0039 22.514 12.0039 22.8796C12.0039 23.2453 12.2477 23.489 12.6133 23.489Z" fill="#29388D"/>
<path d="M9.62891 28.2422L8.16641 29.7047L7.61797 29.1563C7.37422 28.9126 7.00859 28.9126 6.76484 29.1563C6.52109 29.4001 6.52109 29.7657 6.76484 30.0094L7.43516 30.6797C7.61797 30.8626 7.92266 30.9844 8.16641 30.9844C8.47109 30.9844 8.71484 30.8626 8.89766 30.6797L10.4211 29.1563C10.6648 28.9126 10.6648 28.5469 10.4211 28.3032C10.2383 27.9985 9.81172 27.9985 9.62891 28.2422Z" fill="#29388D"/>
<path d="M18.1586 28.9126H12.6133C12.2477 28.9126 12.0039 29.1563 12.0039 29.522C12.0039 29.8876 12.2477 30.1313 12.6133 30.1313H18.1586C18.5242 30.1313 18.768 29.8876 18.768 29.522C18.768 29.1563 18.4633 28.9126 18.1586 28.9126Z" fill="#29388D"/>
<path d="M9.62891 34.8843L8.16641 36.3468L7.61797 35.7984C7.37422 35.5546 7.00859 35.5546 6.76484 35.7984C6.52109 36.0421 6.52109 36.4078 6.76484 36.6515L7.43516 37.3218C7.61797 37.5046 7.92266 37.6265 8.16641 37.6265C8.47109 37.6265 8.71484 37.5046 8.89766 37.3218L10.4211 35.7984C10.6648 35.5546 10.6648 35.189 10.4211 34.9453C10.2383 34.6406 9.81172 34.6406 9.62891 34.8843Z" fill="#29388D"/>
<path d="M17.3059 35.5547H12.5527C12.1871 35.5547 11.9434 35.7984 11.9434 36.1641C11.9434 36.5297 12.1871 36.7734 12.5527 36.7734H17.3059C17.6715 36.7734 17.9152 36.5297 17.9152 36.1641C17.9152 35.7984 17.6715 35.5547 17.3059 35.5547Z" fill="#29388D"/>
<path d="M28.3969 25.7438V12.7641C28.3969 11.2406 27.1781 10.0219 25.6547 10.0219H23.7047V8.4375C23.7047 8.07187 23.4609 7.82812 23.0953 7.82812C22.7297 7.82812 22.4859 8.07187 22.4859 8.4375V10.0219H18.5859V8.4375C18.5859 8.07187 18.3422 7.82812 17.9766 7.82812C17.6109 7.82812 17.3672 8.07187 17.3672 8.4375V10.0219H13.4672V8.4375C13.4672 8.07187 13.2234 7.82812 12.8578 7.82812C12.4922 7.82812 12.2484 8.07187 12.2484 8.4375V10.0219H8.34844V8.4375C8.34844 8.07187 8.10469 7.82812 7.73906 7.82812C7.37344 7.82812 7.12969 8.07187 7.12969 8.4375V10.0219H5.17969C3.65625 10.0219 2.4375 11.2406 2.4375 12.7641V39.8812C2.4375 41.3438 3.65625 42.5625 5.17969 42.5625H24.6797C25.6547 42.9281 26.6906 43.1719 27.7875 43.1719C32.6016 43.1719 36.5625 39.2719 36.5625 34.4578C36.5625 29.8266 32.9672 26.0484 28.3969 25.7438ZM5.17969 11.2406H7.12969V12.825C7.12969 13.1906 7.37344 13.4344 7.73906 13.4344C8.10469 13.4344 8.34844 13.1906 8.34844 12.825V11.2406H12.2484V12.825C12.2484 13.1906 12.4922 13.4344 12.8578 13.4344C13.2234 13.4344 13.4672 13.1906 13.4672 12.825V11.2406H17.3672V12.825C17.3672 13.1906 17.6109 13.4344 17.9766 13.4344C18.3422 13.4344 18.5859 13.1906 18.5859 12.825V11.2406H22.4859V12.825C22.4859 13.1906 22.7297 13.4344 23.0953 13.4344C23.4609 13.4344 23.7047 13.1906 23.7047 12.825V11.2406H25.6547C26.5078 11.2406 27.1781 11.9109 27.1781 12.7641V16.4813H3.65625V12.7641C3.65625 11.9109 4.32656 11.2406 5.17969 11.2406ZM5.17969 41.3438C4.32656 41.3438 3.65625 40.6734 3.65625 39.8812V17.7H27.1781V25.7438C22.6687 26.0484 19.0734 29.8266 19.0734 34.4578C19.0734 37.2609 20.4141 39.8203 22.5469 41.4047H5.17969V41.3438ZM32.0531 40.6125L31.8703 40.3078C31.6875 40.0031 31.3219 39.9422 31.0172 40.0641C30.7125 40.2469 30.6516 40.6125 30.7734 40.9172L30.9562 41.2219C30.1641 41.5875 29.25 41.8312 28.3359 41.9531V41.5875C28.3359 41.2219 28.0922 40.9781 27.7266 40.9781C27.3609 40.9781 27.1172 41.2219 27.1172 41.5875V41.9531C26.2031 41.8922 25.2891 41.6484 24.4969 41.2219L24.6797 40.9172C24.8625 40.6125 24.7406 40.2469 24.4359 40.0641C24.1312 39.8813 23.7656 40.0031 23.5828 40.3078L23.4 40.6125C22.6688 40.125 21.9984 39.4547 21.5109 38.7234L21.8156 38.5406C22.1203 38.3578 22.1812 37.9922 22.0594 37.6875C21.8766 37.3828 21.5109 37.3219 21.2062 37.4437L20.9016 37.6266C20.5359 36.8344 20.2922 35.9203 20.1703 35.0062H20.7188C21.0844 35.0062 21.3281 34.7625 21.3281 34.3969C21.3281 34.0312 21.0844 33.7875 20.7188 33.7875H20.3531C20.4141 32.8734 20.6578 31.9594 21.0844 31.1672L21.3891 31.35C21.5109 31.4109 21.5719 31.4109 21.6937 31.4109C21.8766 31.4109 22.1203 31.2891 22.2422 31.1063C22.425 30.8016 22.3031 30.4359 21.9984 30.2531L21.6937 30.0703C22.1812 29.3391 22.8516 28.6688 23.5828 28.1813L23.7656 28.4859C23.8875 28.6688 24.0703 28.7906 24.3141 28.7906C24.4359 28.7906 24.4969 28.7906 24.6188 28.7297C24.9234 28.5469 24.9844 28.1813 24.8625 27.8766L24.6797 27.5719C25.4719 27.2063 26.3859 26.9625 27.3 26.8406V27.3281C27.3 27.6938 27.5437 27.9375 27.9094 27.9375C28.275 27.9375 28.5187 27.6938 28.5187 27.3281V26.9625C29.4328 27.0234 30.3469 27.2672 31.1391 27.6937L30.9562 27.9984C30.7734 28.3031 30.8953 28.6688 31.2 28.8516C31.3219 28.9125 31.3828 28.9125 31.5047 28.9125C31.6875 28.9125 31.9312 28.7906 32.0531 28.6078L32.2359 28.3031C32.9672 28.7906 33.6375 29.4609 34.125 30.1922L33.6375 30.375C33.3328 30.5578 33.2719 30.9234 33.3937 31.2281C33.5156 31.4109 33.6984 31.5328 33.9422 31.5328C34.0641 31.5328 34.125 31.5328 34.2469 31.4719L34.5516 31.2891C34.9172 32.0812 35.1609 32.9953 35.2828 33.9094H34.9172C34.5516 33.9094 34.3078 34.1531 34.3078 34.5187C34.3078 34.8844 34.5516 35.1281 34.9172 35.1281H35.2828C35.2219 36.0422 34.9781 36.9562 34.5516 37.7484L34.2469 37.5656C33.9422 37.3828 33.5766 37.5047 33.3937 37.8094C33.2109 38.1141 33.3328 38.4797 33.6375 38.6625L33.9422 38.8453C33.4547 39.4547 32.8453 40.125 32.0531 40.6125Z" fill="#29388D"/>
<path d="M29.3711 35.1892C29.493 34.9454 29.5539 34.7017 29.5539 34.4579C29.5539 33.7267 29.0664 33.0563 28.3961 32.8126V29.522C28.3961 29.1563 28.1523 28.9126 27.7867 28.9126C27.4211 28.9126 27.1773 29.1563 27.1773 29.522V32.8126C26.507 33.0563 26.0195 33.7267 26.0195 34.4579C26.0195 35.4329 26.8117 36.2251 27.7867 36.2251C28.0305 36.2251 28.2742 36.1642 28.518 36.0423L29.9195 37.4438C30.0414 37.5657 30.2242 37.6267 30.3461 37.6267C30.468 37.6267 30.6508 37.5657 30.7727 37.4438C31.0164 37.2001 31.0164 36.8345 30.7727 36.5907L29.3711 35.1892ZM27.2992 34.4579C27.2992 34.1532 27.543 33.9095 27.8477 33.9095C28.1523 33.9095 28.3961 34.1532 28.3961 34.4579C28.3961 34.7626 28.1523 35.0063 27.8477 35.0063C27.482 34.9454 27.2992 34.7017 27.2992 34.4579Z" fill="#29388D"/>
</svg>
