<svg width="45" height="45" viewBox="0 0 45 45" fill="none" xmlns="http://www.w3.org/2000/svg">
<path fill-rule="evenodd" clip-rule="evenodd" d="M16.3393 40.437L28.9777 42.5491C29.5871 42.6502 30.2111 42.5064 30.7144 42.1469C31.2178 41.7886 31.5578 41.2438 31.659 40.6344C32.5425 35.3487 35.2847 18.9382 36.1683 13.6513C36.3804 12.3826 35.5236 11.1821 34.2549 10.97L28.8327 10.0633C28.5402 9.11144 27.6529 8.41919 26.6048 8.41919H11.9908C11.6568 8.41919 11.3363 8.55203 11.0999 8.78847C9.53376 10.3546 3.52411 16.3642 3.52411 16.3642C3.40223 16.4861 3.33398 16.6506 3.33398 16.8225V38.1067C3.33398 39.3937 4.37723 40.437 5.66423 40.437H16.3393ZM28.9338 11.3929L28.935 38.1067C28.935 38.7246 28.6901 39.3169 28.2525 39.7545C27.8162 40.1908 27.2227 40.437 26.6048 40.437H24.1965L29.191 41.2706C29.4615 41.3169 29.7394 41.2523 29.9625 41.0927C30.1855 40.933 30.3366 40.6917 30.3817 40.4211C31.2653 35.1342 34.0075 18.7249 34.8911 13.438C34.9849 12.8737 34.6047 12.3411 34.0416 12.2473L28.9338 11.3929ZM5.66423 39.1414H26.6048C26.8802 39.1414 27.1435 39.033 27.3373 38.838C27.531 38.6442 27.6395 38.3809 27.6395 38.1067V10.7494C27.6395 10.1778 27.1764 9.71472 26.6048 9.71472H12.3844V16.8225C12.3844 17.1796 12.0944 17.4696 11.7373 17.4696H4.62952V38.1067C4.62952 38.6783 5.09264 39.1414 5.66423 39.1414ZM9.11573 35.1586H23.9869C24.344 35.1586 24.6341 34.8685 24.6341 34.5102C24.6341 34.1531 24.344 33.863 23.9869 33.863H9.11573C8.75864 33.863 8.46858 34.1531 8.46858 34.5102C8.46858 34.8685 8.75864 35.1586 9.11573 35.1586ZM9.11573 30.5017H23.9869C24.344 30.5017 24.6341 30.2117 24.6341 29.8546C24.6341 29.4975 24.344 29.2074 23.9869 29.2074H9.11573C8.75864 29.2074 8.46858 29.4975 8.46858 29.8546C8.46858 30.2117 8.75864 30.5017 9.11573 30.5017ZM9.11573 25.8461H23.9869C24.344 25.8461 24.6341 25.556 24.6341 25.1989C24.6341 24.8418 24.344 24.5506 23.9869 24.5506H9.11573C8.75864 24.5506 8.46858 24.8418 8.46858 25.1989C8.46858 25.556 8.75864 25.8461 9.11573 25.8461ZM9.11573 21.1905H23.9869C24.344 21.1905 24.6341 20.9004 24.6341 20.5421C24.6341 20.185 24.344 19.8949 23.9869 19.8949H9.11573C8.75864 19.8949 8.46858 20.185 8.46858 20.5421C8.46858 20.9004 8.75864 21.1905 9.11573 21.1905ZM15.92 16.5336H23.9869C24.344 16.5336 24.6341 16.2436 24.6341 15.8865C24.6341 15.5294 24.344 15.2393 23.9869 15.2393H15.92C15.5629 15.2393 15.2729 15.5294 15.2729 15.8865C15.2729 16.2436 15.5629 16.5336 15.92 16.5336ZM11.0901 10.63V16.1753H5.5448L11.0901 10.63Z" fill="#29388D"/>
</svg>
