<svg width="35" height="29" viewBox="0 0 35 29" fill="none" xmlns="http://www.w3.org/2000/svg">
<path d="M32.0086 28.5329H2.99141C1.34531 28.5329 0 27.1876 0 25.5415V3.45869C0 1.8126 1.34531 0.467285 2.99141 0.467285H32.0031C33.6547 0.467285 34.9945 1.8126 34.9945 3.45869V25.536C35 27.1876 33.6602 28.5329 32.0086 28.5329ZM2.99141 1.52822C1.925 1.52822 1.06094 2.39775 1.06094 3.45869V25.536C1.06094 26.6024 1.93047 27.4665 2.99141 27.4665H32.0031C33.0695 27.4665 33.9336 26.597 33.9336 25.536V3.45869C33.9336 2.39229 33.0641 1.52822 32.0031 1.52822H2.99141Z" fill="#29388D"/>
<path d="M34.4695 6.98599H0.530469C0.240625 6.98599 0 6.75083 0 6.45552C0 6.16021 0.235156 5.92505 0.530469 5.92505H34.4695C34.7648 5.92505 35 6.16021 35 6.45552C35 6.75083 34.7648 6.98599 34.4695 6.98599Z" fill="#29388D"/>
<path d="M17.2102 4.21877H4.44062C4.14531 4.21877 3.91016 3.98362 3.91016 3.68831C3.91016 3.39299 4.14531 3.15784 4.44062 3.15784H17.2156C17.5109 3.15784 17.7461 3.39299 17.7461 3.68831C17.7461 3.98362 17.5055 4.21877 17.2102 4.21877Z" fill="#29388D"/>
<path d="M20.9844 5.2196C20.1367 5.2196 19.4531 4.53054 19.4531 3.68835C19.4531 2.84617 20.1422 2.1571 20.9844 2.1571C21.832 2.1571 22.5156 2.84617 22.5156 3.68835C22.5156 4.53054 21.8266 5.2196 20.9844 5.2196ZM20.9844 3.21257C20.7219 3.21257 20.5086 3.42585 20.5086 3.68835C20.5086 3.95085 20.7219 4.16414 20.9844 4.16414C21.2469 4.16414 21.4602 3.95085 21.4602 3.68835C21.4602 3.42585 21.2469 3.21257 20.9844 3.21257Z" fill="#29388D"/>
<path d="M25.2715 5.2196C24.4238 5.2196 23.7402 4.53054 23.7402 3.68835C23.7402 2.84617 24.4293 2.1571 25.2715 2.1571C26.1191 2.1571 26.8027 2.84617 26.8027 3.68835C26.8027 4.53054 26.1191 5.2196 25.2715 5.2196ZM25.2715 3.21257C25.009 3.21257 24.7957 3.42585 24.7957 3.68835C24.7957 3.95085 25.009 4.16414 25.2715 4.16414C25.534 4.16414 25.7473 3.95085 25.7473 3.68835C25.7473 3.42585 25.534 3.21257 25.2715 3.21257Z" fill="#29388D"/>
<path d="M29.5586 5.2196C28.7109 5.2196 28.0273 4.53054 28.0273 3.68835C28.0273 2.84617 28.7164 2.1571 29.5586 2.1571C30.4062 2.1571 31.0953 2.84617 31.0953 3.68835C31.0953 4.53054 30.4062 5.2196 29.5586 5.2196ZM29.5586 3.21257C29.2961 3.21257 29.0828 3.42585 29.0828 3.68835C29.0828 3.95085 29.2961 4.16414 29.5586 4.16414C29.8211 4.16414 30.0344 3.95085 30.0344 3.68835C30.0344 3.42585 29.8211 3.21257 29.5586 3.21257Z" fill="#29388D"/>
<path d="M8.36797 20.4664C5.44766 20.4664 3.07422 18.093 3.07422 15.1727C3.07422 12.2523 5.44766 9.87891 8.36797 9.87891C8.66328 9.87891 8.89844 10.1141 8.89844 10.4094V14.6422H13.1312C13.4266 14.6422 13.6617 14.8773 13.6617 15.1727C13.6617 18.093 11.2883 20.4664 8.36797 20.4664ZM7.8375 10.9727C5.75391 11.2352 4.13516 13.018 4.13516 15.1727C4.13516 17.5078 6.03281 19.4055 8.36797 19.4055C10.5227 19.4055 12.3055 17.7867 12.568 15.7031H8.36797C8.07266 15.7031 7.8375 15.468 7.8375 15.1727V10.9727Z" fill="#29388D"/>
<path d="M13.8043 14.0625H10.009C9.71367 14.0625 9.47852 13.8274 9.47852 13.5321V9.73677C9.47852 9.44146 9.71367 9.2063 10.009 9.2063C12.3934 9.2063 14.3348 11.1477 14.3348 13.5321C14.3348 13.8274 14.0996 14.0625 13.8043 14.0625ZM10.5395 13.0016H13.2301C13.0059 11.6235 11.9121 10.5352 10.5395 10.311V13.0016Z" fill="#29388D"/>
<path d="M19.5996 23.8681H17.0949C16.7996 23.8681 16.5645 23.633 16.5645 23.3376V13.2587C16.5645 12.9634 16.7996 12.7283 17.0949 12.7283H19.5996C19.8949 12.7283 20.1301 12.9634 20.1301 13.2587V23.3376C20.1301 23.633 19.8895 23.8681 19.5996 23.8681ZM17.6199 22.8072H19.0691V13.7892H17.6199V22.8072Z" fill="#29388D"/>
<path d="M25.0801 23.8682H22.5754C22.2801 23.8682 22.0449 23.633 22.0449 23.3377V9.4416C22.0449 9.14629 22.2801 8.91113 22.5754 8.91113H25.0801C25.3754 8.91113 25.6105 9.14629 25.6105 9.4416V23.3377C25.6105 23.633 25.3754 23.8682 25.0801 23.8682ZM23.1059 22.8072H24.5551V9.97207H23.1059V22.8072Z" fill="#29388D"/>
<path d="M30.5641 23.8681H28.0539C27.7586 23.8681 27.5234 23.6329 27.5234 23.3376V16.7478C27.5234 16.4524 27.7586 16.2173 28.0539 16.2173H30.5586C30.8539 16.2173 31.0891 16.4524 31.0891 16.7478V23.3376C31.0945 23.6329 30.8539 23.8681 30.5641 23.8681ZM28.5844 22.8071H30.0336V17.2782H28.5844V22.8071Z" fill="#29388D"/>
<path d="M31.6688 25.3611H16.1594C15.8641 25.3611 15.6289 25.126 15.6289 24.8306C15.6289 24.5353 15.8641 24.3002 16.1594 24.3002H31.6688C31.9641 24.3002 32.1992 24.5353 32.1992 24.8306C32.1992 25.1205 31.9641 25.3611 31.6688 25.3611Z" fill="#29388D"/>
</svg>
