<svg width="32" height="32" viewBox="0 0 32 32" fill="none" xmlns="http://www.w3.org/2000/svg">
<path d="M31.5009 18.6219L29.8723 16.9933C29.2071 16.3282 28.1254 16.3293 27.4602 16.9933L18.6658 25.7883L17.4537 30.2335L17.1572 30.5301C16.9355 30.7518 16.9349 31.1096 17.1537 31.333L17.1509 31.3444L17.1617 31.3416C17.2726 31.4501 17.4166 31.5061 17.5612 31.5061C17.7075 31.5061 17.8538 31.4501 17.9652 31.3387L18.2623 31.0416L22.707 29.8295L31.5014 21.0345C32.1666 20.3694 32.1666 19.2871 31.5009 18.6219ZM19.9852 26.0855L25.8385 20.2328L28.2631 22.6568L22.4098 28.5101L19.9852 26.0855ZM19.4692 27.1855L21.3092 29.0255L18.7789 29.7158L19.4692 27.1855ZM30.6928 20.2265L29.0705 21.8488L26.6459 19.4248L28.2682 17.8025C28.4882 17.5825 28.8454 17.583 29.0648 17.8019L30.6934 19.4305C30.9128 19.6494 30.9128 20.0071 30.6928 20.2265Z" fill="#29388D"/>
<path d="M15.4289 7.35144C15.1134 7.35144 14.8574 7.60687 14.8574 7.92288C14.8574 8.23888 15.1134 8.49432 15.4289 8.49432H25.7148C26.0302 8.49432 26.2862 8.23888 26.2862 7.92288C26.2862 7.60687 26.0302 7.35144 25.7148 7.35144H15.4289Z" fill="#29388D"/>
<path d="M26.2862 15.9231C26.2862 15.6071 26.0302 15.3517 25.7148 15.3517H15.4289C15.1134 15.3517 14.8574 15.6071 14.8574 15.9231C14.8574 16.2391 15.1134 16.4946 15.4289 16.4946H25.7148C26.0302 16.4946 26.2862 16.2386 26.2862 15.9231Z" fill="#29388D"/>
<path d="M11.7598 4.63204C11.5209 4.42633 11.1598 4.45318 10.9541 4.69376L7.38371 8.85841L5.19968 7.22066C4.9471 7.03209 4.58938 7.08237 4.39966 7.33495C4.20994 7.58695 4.26137 7.94525 4.51395 8.13439L7.126 10.0939C7.22885 10.171 7.34886 10.2081 7.46886 10.2081C7.63058 10.2081 7.79058 10.1401 7.90315 10.0081L11.8215 5.43663C12.0267 5.19777 11.9992 4.83719 11.7598 4.63204Z" fill="#29388D"/>
<path d="M11.7598 12.632C11.5209 12.4263 11.1598 12.4532 10.9541 12.6938L7.38371 16.8584L5.19968 15.2207C4.9471 15.0315 4.58938 15.0829 4.39966 15.3349C4.20994 15.587 4.26137 15.9452 4.51395 16.1344L7.126 18.0939C7.22885 18.171 7.34886 18.2081 7.46886 18.2081C7.63058 18.2081 7.79058 18.1401 7.90315 18.0081L11.8215 13.4366C12.0267 13.1978 11.9992 12.8372 11.7598 12.632Z" fill="#29388D"/>
<path d="M10.9535 21.2654L7.38314 25.4295L5.19968 23.7918C4.9471 23.6026 4.58938 23.6541 4.39966 23.9061C4.20994 24.1581 4.26137 24.5164 4.51395 24.7055L7.126 26.665C7.22885 26.7421 7.34886 26.7793 7.46886 26.7793C7.63058 26.7793 7.79058 26.7113 7.90315 26.5793L11.8215 22.0083C12.0267 21.7689 11.9992 21.4083 11.7598 21.2032C11.5204 20.998 11.1592 21.0254 10.9535 21.2654Z" fill="#29388D"/>
<path d="M14.286 30.209H6.95784C3.7515 30.209 1.14288 27.6004 1.14288 24.3941V7.45149C1.14288 4.24515 3.7515 1.6371 6.95784 1.6371H23.8999C27.1062 1.6371 29.7148 4.24515 29.7148 7.45149V14.2082C29.7148 14.5242 29.9708 14.7796 30.2863 14.7796C30.6017 14.7796 30.8577 14.5242 30.8577 14.2082V7.45149C30.8577 3.61485 27.7365 0.493652 23.8999 0.493652H6.95784C3.1212 0.494224 0 3.61485 0 7.45149V24.3935C0 28.2301 3.1212 31.3513 6.95784 31.3513H14.286C14.6014 31.3513 14.8574 31.0959 14.8574 30.7799C14.8574 30.4639 14.6014 30.209 14.286 30.209Z" fill="#29388D"/>
</svg>
