<svg width="45" height="45" viewBox="0 0 45 45" fill="none" xmlns="http://www.w3.org/2000/svg">
<path d="M19 16.3516C18.5903 16.3516 18.2578 16.6841 18.2578 17.0938C18.2578 17.5034 18.5903 17.8359 19 17.8359C19.4097 17.8359 19.7422 17.5034 19.7422 17.0938C19.7422 16.6841 19.4097 16.3516 19 16.3516Z" fill="#29388D"/>
<path d="M6.67969 29.7109C7.08934 29.7109 7.42188 29.3784 7.42188 28.9688C7.42188 28.5591 7.08934 28.2266 6.67969 28.2266C6.27003 28.2266 5.9375 28.5591 5.9375 28.9688C5.9375 29.3784 6.27003 29.7109 6.67969 29.7109Z" fill="#29388D"/>
<path d="M24.9375 8.92969C18.2558 8.92969 12.7717 13.5365 12.3476 19.3392C5.98418 19.6584 0 24.2469 0 30.4531C0 33.0467 1.02631 35.5597 2.89453 37.5509C3.26418 39.0747 2.81538 40.6898 1.70181 41.8034C1.48959 42.0156 1.4261 42.3348 1.54091 42.6122C1.65572 42.8894 1.92621 43.0703 2.22656 43.0703C4.34325 43.0703 6.3831 42.2403 7.89879 40.7776C9.37534 41.2809 11.3018 41.5859 13.0625 41.5859C19.7433 41.5859 25.2268 36.9803 25.6521 31.1788C27.2061 31.1098 28.8224 30.8228 30.1012 30.387C31.6169 31.8497 33.6568 32.6797 35.7734 32.6797C36.0738 32.6797 36.3443 32.4988 36.4591 32.2216C36.5739 31.9442 36.5104 31.625 36.2982 31.4128C35.1846 30.2992 34.7358 28.6841 35.1055 27.1602C36.9737 25.1691 38 22.6561 38 20.0625C38 13.6139 31.5549 8.92969 24.9375 8.92969ZM13.0625 40.1016C11.3108 40.1016 9.31474 39.7577 7.97765 39.2257C7.69121 39.1115 7.36389 39.1866 7.15544 39.4142C6.25931 40.3938 5.09413 41.0768 3.82458 41.3908C4.52415 40.0505 4.70274 38.4705 4.27715 36.9734C4.24352 36.8554 4.18118 36.7475 4.09566 36.6597C2.41182 34.9254 1.48438 32.7211 1.48438 30.4531C1.48438 25.223 6.78638 20.8047 13.0625 20.8047C18.989 20.8047 24.1953 24.9259 24.1953 30.4531C24.1953 35.7734 19.2012 40.1016 13.0625 40.1016ZM33.9043 26.269C33.8188 26.3572 33.7565 26.465 33.7229 26.5827C33.2973 28.0799 33.4758 29.6599 34.1754 31.0002C32.9059 30.6865 31.7407 30.0032 30.8446 29.0235C30.6361 28.7962 30.3088 28.7209 30.0224 28.8351C28.8636 29.2961 27.2104 29.6153 25.6498 29.6924C25.433 26.8857 24.033 24.2477 21.6394 22.2891H31.3203C31.7303 22.2891 32.0625 21.9568 32.0625 21.5469C32.0625 21.1369 31.7303 20.8047 31.3203 20.8047H19.3592C17.6745 19.9471 15.7828 19.447 13.8357 19.3421C14.2622 14.3572 19.0786 10.4141 24.9375 10.4141C31.2136 10.4141 36.5156 14.8324 36.5156 20.0625C36.5156 22.3305 35.5882 24.5348 33.9043 26.269Z" fill="#29388D"/>
<path d="M19 28.2266H9.64844C9.23849 28.2266 8.90625 28.5588 8.90625 28.9688C8.90625 29.3787 9.23849 29.7109 9.64844 29.7109H19C19.4099 29.7109 19.7422 29.3787 19.7422 28.9688C19.7422 28.5588 19.4099 28.2266 19 28.2266Z" fill="#29388D"/>
<path d="M19 32.6797H6.67969C6.26974 32.6797 5.9375 33.0119 5.9375 33.4219C5.9375 33.8318 6.26974 34.1641 6.67969 34.1641H19C19.4099 34.1641 19.7422 33.8318 19.7422 33.4219C19.7422 33.0119 19.4099 32.6797 19 32.6797Z" fill="#29388D"/>
<path d="M31.3203 16.3516H21.9688C21.5588 16.3516 21.2266 16.6838 21.2266 17.0938C21.2266 17.5037 21.5588 17.8359 21.9688 17.8359H31.3203C31.7303 17.8359 32.0625 17.5037 32.0625 17.0938C32.0625 16.6838 31.7303 16.3516 31.3203 16.3516Z" fill="#29388D"/>
</svg>
