<svg width="41" height="39" viewBox="0 0 41 39" fill="none" xmlns="http://www.w3.org/2000/svg">
<path d="M22.2778 21.1755C22.2778 21.362 22.3519 21.5408 22.4838 21.6727C22.6156 21.8045 22.7945 21.8786 22.9809 21.8786C23.1674 21.8786 23.3463 21.8045 23.4781 21.6727C23.61 21.5408 23.6841 21.362 23.6841 21.1755C23.6578 20.4998 23.3949 19.8548 22.9412 19.3533C22.4876 18.8519 21.8721 18.5258 21.2024 18.4323V17.6648C21.2024 17.4783 21.1283 17.2995 20.9964 17.1676C20.8646 17.0357 20.6857 16.9617 20.4993 16.9617C20.3128 16.9617 20.1339 17.0357 20.0021 17.1676C19.8702 17.2995 19.7961 17.4783 19.7961 17.6648V18.4323C19.1266 18.5258 18.5112 18.8517 18.0576 19.3529C17.604 19.8542 17.3409 20.4989 17.3145 21.1744V21.5932C17.3404 22.269 17.6033 22.9143 18.0569 23.416C18.5106 23.9176 19.1262 24.2438 19.7961 24.3375V27.5015C19.5024 27.428 19.2397 27.2628 19.0463 27.0298C18.8529 26.7968 18.7389 26.5083 18.7207 26.206C18.7207 26.0195 18.6466 25.8407 18.5148 25.7088C18.3829 25.577 18.2041 25.5029 18.0176 25.5029C17.8311 25.5029 17.6523 25.577 17.5204 25.7088C17.3885 25.8407 17.3145 26.0195 17.3145 26.206C17.3404 26.882 17.6031 27.5273 18.0568 28.029C18.5105 28.5308 19.1262 28.857 19.7961 28.9507V29.7181C19.7961 29.9046 19.8702 30.0834 20.0021 30.2153C20.1339 30.3472 20.3128 30.4212 20.4993 30.4212C20.6857 30.4212 20.8646 30.3472 20.9964 30.2153C21.1283 30.0834 21.2024 29.9046 21.2024 29.7181V28.9507C21.8719 28.8571 22.4873 28.5312 22.9409 28.03C23.3945 27.5287 23.6576 26.884 23.6841 26.2085V25.7799C23.6578 25.1042 23.3949 24.4592 22.9412 23.9578C22.4876 23.4563 21.8721 23.1303 21.2024 23.0367V19.88C21.4961 19.9535 21.7587 20.1188 21.9521 20.3517C22.1455 20.5847 22.2596 20.8733 22.2778 21.1755ZM19.7961 22.8897C19.5024 22.8162 19.2397 22.651 19.0463 22.418C18.8529 22.185 18.7389 21.8965 18.7207 21.5942V21.1755C18.7389 20.8733 18.853 20.5847 19.0464 20.3517C19.2398 20.1188 19.5024 19.9535 19.7961 19.88V22.8897ZM22.2778 25.7799V26.2074C22.2596 26.5097 22.1456 26.7982 21.9522 27.0312C21.7588 27.2642 21.4961 27.4294 21.2024 27.5029V24.4841C21.4961 24.5576 21.7588 24.7229 21.9522 24.956C22.1456 25.189 22.2597 25.4776 22.2778 25.7799Z" fill="#29388D"/>
<path d="M30.163 26.2025C29.9765 26.2025 29.7977 26.2766 29.6658 26.4085C29.534 26.5403 29.4599 26.7192 29.4599 26.9056V29.3437C29.4591 29.622 29.4003 29.897 29.2872 30.1512C29.1741 30.4055 29.0093 30.6333 28.8032 30.8203C28.7332 30.8876 28.6567 30.9477 28.5747 30.9996C28.5652 31.0059 28.5574 31.0122 28.5476 31.0186C28.2261 31.2316 27.8487 31.3444 27.463 31.3427H25.5294C25.3429 31.3427 25.1641 31.4168 25.0322 31.5487C24.9004 31.6805 24.8263 31.8594 24.8263 32.0458C24.8263 32.2323 24.9004 32.4112 25.0322 32.543C25.1641 32.6749 25.3429 32.749 25.5294 32.749H27.463C28.1193 32.752 28.7619 32.5611 29.3101 32.2002C29.4744 32.0978 29.6275 31.9787 29.7672 31.8447L29.7745 31.837L29.7798 31.8328L29.7844 31.8272C30.1253 31.5095 30.3972 31.1251 30.5833 30.6978C30.7694 30.2706 30.8657 29.8097 30.8661 29.3437V26.9056C30.8661 26.7192 30.7921 26.5403 30.6602 26.4085C30.5283 26.2766 30.3495 26.2025 30.163 26.2025Z" fill="#29388D"/>
<path d="M40.8906 26.9057V24.8969C40.9035 24.5114 40.7631 24.1364 40.5003 23.8541C40.2376 23.5717 39.8737 23.4049 39.4882 23.3901H38.3741C38.3762 23.3549 38.3836 23.3243 38.3836 23.2899V21.2807C38.3955 20.8941 38.2537 20.5186 37.9894 20.2363C37.7251 19.954 37.3597 19.7878 36.9732 19.7742H33.5982C33.5767 19.6828 33.5595 19.589 33.5366 19.4993C32.4654 15.3189 29.8125 11.8585 26.3271 9.99765C26.9573 9.77048 27.6209 9.65 28.2906 9.64116C29.2392 9.63245 30.1768 9.8449 31.0289 10.2617C31.1968 10.3431 31.3901 10.3546 31.5664 10.2935C31.7426 10.2324 31.8874 10.1038 31.9688 9.93595C32.0503 9.76812 32.0617 9.5748 32.0006 9.39854C31.9396 9.22227 31.811 9.07749 31.6431 8.99605C30.5942 8.48589 29.4415 8.22526 28.2752 8.23456C27.9907 8.23812 27.7066 8.25796 27.4244 8.29398C28.4645 6.50052 29.1665 4.53136 29.4954 2.4844C29.5404 2.25065 29.5129 2.00872 29.4164 1.7911C29.3199 1.57347 29.1592 1.39057 28.9558 1.26694C28.7689 1.15627 28.5522 1.1064 28.3358 1.12422C28.1193 1.14205 27.9137 1.22669 27.7475 1.36644C26.5919 2.31882 25.5389 2.72382 24.614 2.57194C23.9204 2.45733 23.4795 2.07976 22.969 1.6389C22.3429 1.10065 21.6331 0.48999 20.4631 0.48999C19.2931 0.48999 18.5829 1.1003 17.9571 1.6389C17.4463 2.078 17.0055 2.45733 16.3118 2.57194C15.4066 2.7203 14.3758 2.33429 13.2469 1.42233C13.0763 1.28107 12.8652 1.19758 12.6441 1.18387C12.423 1.17016 12.2032 1.22694 12.0164 1.34605C11.8125 1.47802 11.6549 1.67038 11.5656 1.89627C11.4763 2.12216 11.4597 2.3703 11.5183 2.60605C12.2622 5.7673 13.5159 8.28765 15.0402 9.81308C12.0694 11.316 9.71626 13.8087 8.38691 16.8612C7.58957 16.1528 6.23254 15.7032 4.62941 15.7032C2.05246 15.7032 0.109375 16.8633 0.109375 18.3986V32.973C0.109989 33.3204 0.199386 33.662 0.369082 33.9652C0.538777 34.2684 0.783142 34.5232 1.07898 34.7055C1.77145 35.1216 2.53101 35.4141 3.32371 35.57V35.7855C3.32435 36.1328 3.41372 36.4743 3.58335 36.7774C3.75298 37.0806 3.99724 37.3354 4.29297 37.5176C5.31202 38.1312 6.47164 38.4725 7.66059 38.509C7.72281 38.5108 7.78398 38.5118 7.84516 38.5118C9.08963 38.5076 10.3098 38.1667 11.3762 37.5253C11.6786 37.3459 11.9289 37.0906 12.1023 36.7847C12.2756 36.4788 12.366 36.1329 12.3645 35.7812V35.6227C12.5051 35.6325 12.6457 35.6445 12.7864 35.6445H28.2143C28.4669 35.6442 28.7193 35.6281 28.9698 35.5963H39.4605C39.8481 35.5872 40.2163 35.4248 40.4844 35.1446C40.7525 34.8645 40.8985 34.4895 40.8906 34.1018V32.1169C40.896 31.7596 40.7709 31.4126 40.5388 31.1408C40.3068 30.869 39.9837 30.6911 39.6299 30.6403C39.6327 30.6006 39.6412 30.5623 39.6412 30.5219V28.513C39.6412 28.4733 39.6331 28.436 39.6303 28.397C39.9868 28.3465 40.3122 28.1666 40.5447 27.8916C40.7771 27.6165 40.9002 27.2656 40.8906 26.9057ZM36.9394 21.1721C36.9527 21.1867 36.9629 21.2039 36.9694 21.2225C36.976 21.2412 36.9787 21.261 36.9774 21.2807V23.2899C36.9774 23.3521 36.951 23.3876 36.9682 23.3901H34.0573C34.0573 23.3496 34.0545 23.311 34.052 23.2751C34.0453 22.9629 34.0267 22.6504 34.0021 22.3382C33.9958 22.2542 33.9877 22.1701 33.98 22.0858C33.9553 21.8237 33.9246 21.5626 33.8878 21.3025C33.8819 21.2614 33.8794 21.2199 33.8734 21.1787L36.9394 21.1721ZM34.0601 28.4143H38.205C38.2257 28.4436 38.2362 28.4789 38.2349 28.5148V30.5236C38.2362 30.5595 38.2257 30.5948 38.205 30.6242H34.0352C34.0352 30.6059 34.0352 30.5873 34.038 30.569C34.0506 30.4203 34.0591 30.2712 34.0591 30.1218L34.0601 28.4143ZM13.0785 3.03952C14.2787 3.83054 15.4403 4.13991 16.5411 3.95745C17.4245 3.7763 18.2355 3.34034 18.874 2.70343C19.4745 2.18663 19.8443 1.89483 20.4631 1.89483C21.0818 1.89483 21.4517 2.18698 22.0521 2.70343C22.6904 3.34042 23.5014 3.77639 24.3848 3.95745C25.52 4.14519 26.7237 3.8098 27.9668 2.95937C27.2876 6.08019 26.0143 8.46237 24.4969 9.48999C24.4836 9.49843 24.4705 9.50757 24.4579 9.51706C24.2515 9.65495 24.0307 9.77001 23.7994 9.86019C23.5567 9.94889 23.3083 10.021 23.0559 10.076C23.1916 9.72003 23.3034 9.35535 23.3905 8.98444C23.5235 8.41079 23.5982 7.82515 23.6134 7.23648C23.6181 7.04999 23.5485 6.8693 23.4199 6.73414C23.2914 6.59898 23.1144 6.52043 22.9279 6.51577C22.7414 6.51111 22.5607 6.58072 22.4256 6.70928C22.2904 6.83785 22.2118 7.01484 22.2072 7.20132C22.1946 7.69517 22.1319 8.18648 22.0202 8.66769C21.8853 9.23652 21.6848 9.78773 21.4225 10.3102C21.1261 10.3299 20.8196 10.3387 20.5084 10.333H20.5025H20.4961H20.4796C20.1597 10.3264 19.8528 10.3046 19.5638 10.2736C19.0837 9.3189 18.8211 8.26965 18.7949 7.20132C18.7903 7.01484 18.7117 6.83785 18.5765 6.70928C18.4414 6.58072 18.2607 6.51111 18.0742 6.51577C17.8877 6.52043 17.7107 6.59898 17.5822 6.73414C17.4536 6.8693 17.384 7.04999 17.3887 7.23648C17.4096 8.16712 17.584 9.08792 17.9048 9.96179C17.7712 9.92417 17.6523 9.88726 17.5652 9.85632C15.7381 9.19433 14.0523 6.61351 13.0785 3.03952ZM4.62941 17.1094C6.53031 17.1094 7.7432 17.8723 7.7432 18.3975C7.7432 18.9228 6.53031 19.686 4.62941 19.686C2.72852 19.686 1.51562 18.9238 1.51562 18.3986C1.51562 17.8734 2.72852 17.1094 4.62941 17.1094ZM3.32371 29.65V34.125C2.79026 33.9931 2.27912 33.7835 1.80672 33.5028C1.71668 33.447 1.64257 33.3689 1.59157 33.2761C1.54057 33.1833 1.51441 33.0789 1.51562 32.973V20.3828C2.47822 20.8752 3.54852 21.1194 4.62941 21.0933C5.71031 21.1194 6.78061 20.8752 7.7432 20.3828V26.9598C7.69469 26.9619 7.64582 26.9598 7.59766 26.963C6.48405 26.9624 5.39147 27.2663 4.43816 27.8419C4.1163 28.0264 3.84572 28.2885 3.65106 28.6043C3.45641 28.9201 3.34387 29.2796 3.32371 29.65ZM10.9575 34.8208V35.7812C10.9579 35.8896 10.9301 35.9962 10.8767 36.0904C10.8233 36.1847 10.7462 36.2634 10.6531 36.3188C9.80391 36.8339 8.82957 37.106 7.83635 37.1053C6.84313 37.1046 5.86917 36.8312 5.0207 36.3149C4.93076 36.2592 4.85673 36.1811 4.80579 36.0884C4.75486 35.9956 4.72873 35.8913 4.72996 35.7855V31.6289C5.69389 32.1179 6.76311 32.3627 7.84375 32.3419H7.90387C8.10918 32.3419 8.31309 32.3328 8.50504 32.3155C9.36148 32.2602 10.1969 32.0264 10.9575 31.6289V34.8208ZM8.3827 30.9146C8.22766 30.9286 8.06629 30.9357 7.90387 30.9357H7.84375C6.9269 30.9662 6.01954 30.7419 5.2225 30.2877C4.90961 30.0768 4.73031 29.8451 4.73031 29.65C4.73031 29.4549 4.90996 29.2186 5.2225 29.0084C5.96253 28.5808 6.80381 28.3597 7.65848 28.3682C7.68281 28.3678 7.70711 28.3661 7.73125 28.3629C7.75121 28.3607 7.77129 28.3598 7.79137 28.3601C8.00055 28.3601 8.19777 28.3668 8.38902 28.3861C10.0414 28.5211 10.9572 29.219 10.9572 29.65C10.9572 30.081 10.0424 30.7757 8.3827 30.9146ZM28.8436 34.1964C28.6354 34.2245 28.4255 34.2384 28.2154 34.2382H12.7857C12.645 34.2382 12.5044 34.2291 12.3638 34.2168V29.65C12.3638 28.3995 11.0655 27.3863 9.14945 27.0664V18.7635C10.4151 15.0492 12.9973 12.1668 16.2788 10.7897C16.5345 10.9434 16.804 11.0729 17.0839 11.1764C17.1078 11.1852 17.1384 11.194 17.1637 11.2028C16.5258 11.9835 16.0619 12.8913 15.8028 13.8655C15.7546 14.0457 15.7799 14.2376 15.8732 14.3991C15.9665 14.5605 16.1201 14.6783 16.3002 14.7265C16.3597 14.7427 16.4211 14.7508 16.4827 14.7508C16.6374 14.7506 16.7877 14.6994 16.9104 14.6052C17.0331 14.5109 17.1212 14.3788 17.1612 14.2294C17.43 13.2177 17.9727 12.2997 18.7295 11.5765C19.0628 11.6307 19.4207 11.675 19.7969 11.7031V14.2582C19.7969 14.4447 19.871 14.6236 20.0028 14.7554C20.1347 14.8873 20.3135 14.9614 20.5 14.9614C20.6865 14.9614 20.8653 14.8873 20.9972 14.7554C21.129 14.6236 21.2031 14.4447 21.2031 14.2582V11.7305C21.5976 11.7143 21.9745 11.6813 22.325 11.6349C22.7372 12.0411 23.0861 12.507 23.36 13.0169C23.5662 13.401 23.7272 13.8078 23.8398 14.2291C23.8628 14.319 23.9034 14.4036 23.9593 14.4778C24.0151 14.552 24.0851 14.6144 24.1653 14.6614C24.2454 14.7084 24.334 14.7391 24.426 14.7517C24.5181 14.7642 24.6117 14.7584 24.7014 14.7346C24.7912 14.7108 24.8754 14.6694 24.9491 14.6128C25.0228 14.5563 25.0845 14.4857 25.1308 14.4052C25.177 14.3246 25.2069 14.2357 25.2186 14.1436C25.2303 14.0514 25.2236 13.9579 25.199 13.8684C24.95 12.9349 24.5139 12.0617 23.9172 11.3019C24.0599 11.2587 24.1928 11.2155 24.3039 11.1729C24.5167 11.0886 24.7231 10.9887 24.9212 10.8741C28.4263 12.4291 31.1263 15.7545 32.175 19.8484C32.239 20.0969 32.2966 20.3532 32.3477 20.6173C32.5292 21.5114 32.6298 22.42 32.6482 23.3321C32.6556 23.4505 32.6549 23.5725 32.6549 23.691V30.12C32.6548 30.4644 32.6092 30.8072 32.5192 31.1396C32.2751 31.9542 31.796 32.6787 31.142 33.2222C30.488 33.7658 29.6881 34.1043 28.8426 34.1953L28.8436 34.1964ZM39.4854 34.1018C39.4836 34.1326 39.4754 34.1626 39.4615 34.1901H32.1719C32.8497 33.6048 33.3743 32.8628 33.7001 32.0287H38.2353C38.242 32.0287 38.2479 32.0266 38.2543 32.0266H39.4478C39.4605 32.0379 39.4704 32.052 39.4768 32.0678C39.4832 32.0836 39.4859 32.1006 39.4847 32.1176L39.4854 34.1018ZM39.4854 26.9057C39.4866 26.9413 39.4768 26.9764 39.4573 27.0062H34.0601V24.7963H39.4562C39.4756 24.8262 39.4854 24.8613 39.4844 24.8969L39.4854 26.9057Z" fill="#29388D"/>
</svg>
