<svg width="45" height="45" viewBox="0 0 45 45" fill="none" xmlns="http://www.w3.org/2000/svg">
<path d="M12.4195 18.4136C12.3563 18.4136 12.2923 18.3984 12.2347 18.368C12.1027 18.2992 12.0195 18.1624 12.0195 18.0136V10.0848C12.0195 9.86401 12.1987 9.68481 12.4195 9.68481C12.6403 9.68481 12.8195 9.86401 12.8195 10.0848V17.248L14.2243 16.2696C14.5307 16.056 14.9435 16.056 15.2499 16.2696L16.6555 17.248V10.0848C16.6555 9.86401 16.8347 9.68481 17.0555 9.68481C17.2763 9.68481 17.4555 9.86401 17.4555 10.0848V18.0136C17.4555 18.1624 17.3731 18.2992 17.2403 18.368C17.1083 18.4368 16.9491 18.4272 16.8267 18.3416L14.7923 16.9256C14.7587 16.9024 14.7147 16.9024 14.6811 16.9256L12.6475 18.3416C12.5795 18.3896 12.4995 18.4136 12.4195 18.4136Z" fill="#29388D" stroke="#29388D" stroke-width="0.2"/>
<path d="M18.142 38.3608H2.45239C1.32119 38.3608 0.400391 37.44 0.400391 36.3088V11.7368C0.400391 10.6056 1.32119 9.68481 2.45239 9.68481H27.0244C28.1556 9.68481 29.0764 10.6056 29.0764 11.7368V26.6872C29.0764 26.908 28.8972 27.0872 28.6764 27.0872C28.4556 27.0872 28.2764 26.908 28.2764 26.6872V11.7368C28.2764 11.0464 27.7148 10.4848 27.0244 10.4848H2.45239C1.76199 10.4848 1.20039 11.0464 1.20039 11.7368V36.3088C1.20039 36.9992 1.76199 37.5608 2.45239 37.5608H18.142C18.3628 37.5608 18.542 37.74 18.542 37.9608C18.542 38.1816 18.3628 38.3608 18.142 38.3608Z" fill="#29388D" stroke="#29388D" stroke-width="0.2"/>
<path d="M6.5149 31.7784H3.9061C3.6853 31.7784 3.5061 31.5992 3.5061 31.3784C3.5061 31.1576 3.6853 30.9784 3.9061 30.9784H6.5149C6.7357 30.9784 6.9149 31.1576 6.9149 31.3784C6.9149 31.5992 6.7357 31.7784 6.5149 31.7784Z" fill="#29388D" stroke="#29388D" stroke-width="0.2"/>
<path d="M6.5149 34.0576H3.9061C3.6853 34.0576 3.5061 33.8784 3.5061 33.6576C3.5061 33.4368 3.6853 33.2576 3.9061 33.2576H6.5149C6.7357 33.2576 6.9149 33.4368 6.9149 33.6576C6.9149 33.8784 6.7357 34.0576 6.5149 34.0576Z" fill="#29388D" stroke="#29388D" stroke-width="0.2"/>
<path d="M26.4424 42.0687C22.6312 42.0687 19.5312 38.9679 19.5312 35.1575C19.5312 31.3471 22.632 28.2463 26.4424 28.2463C30.2528 28.2463 33.3537 31.3463 33.3537 35.1575C33.3537 38.9687 30.2536 42.0687 26.4424 42.0687ZM26.4424 29.0455C23.0728 29.0455 20.3313 31.7871 20.3313 35.1567C20.3313 38.5263 23.0728 41.2679 26.4424 41.2679C29.812 41.2679 32.5537 38.5263 32.5537 35.1567C32.5545 31.7871 29.8128 29.0455 26.4424 29.0455Z" fill="#29388D" stroke="#29388D" stroke-width="0.2"/>
<path d="M26.4416 44.3153C21.392 44.3153 17.2832 40.2073 17.2832 35.1569C17.2832 30.1073 21.3912 25.9985 26.4416 25.9985C31.492 25.9985 35.6 30.1073 35.6 35.1569C35.6 40.2073 31.4912 44.3153 26.4416 44.3153ZM26.4416 26.7993C21.8328 26.7993 18.0832 30.5489 18.0832 35.1577C18.0832 39.7665 21.8328 43.5161 26.4416 43.5161C31.0504 43.5161 34.8 39.7657 34.8 35.1569C34.8 30.5481 31.0504 26.7993 26.4416 26.7993Z" fill="#29388D" stroke="#29388D" stroke-width="0.2"/>
<path d="M25.0809 38.5465C24.8033 38.5465 24.5417 38.4385 24.3449 38.2417L22.7665 36.6633C22.2705 36.1673 22.2705 35.3601 22.7665 34.8641C23.2625 34.3681 24.0697 34.3681 24.5657 34.8641L25.0809 35.3793L28.3193 32.1409C28.5593 31.9009 28.8793 31.7681 29.2193 31.7681C29.5593 31.7681 29.8785 31.9001 30.1193 32.1409C30.6153 32.6369 30.6153 33.4441 30.1193 33.9401L25.8169 38.2425C25.6201 38.4385 25.3593 38.5465 25.0809 38.5465ZM23.6665 35.2913C23.5457 35.2913 23.4241 35.3377 23.3321 35.4297C23.1481 35.6137 23.1481 35.9137 23.3321 36.0977L24.9105 37.6761C25.0017 37.7665 25.1601 37.7665 25.2505 37.6761L29.5529 33.3737C29.7369 33.1897 29.7369 32.8897 29.5529 32.7057C29.4633 32.6161 29.3449 32.5673 29.2185 32.5673C29.0921 32.5673 28.9737 32.6161 28.8841 32.7057L25.3633 36.2265C25.2073 36.3825 24.9537 36.3825 24.7977 36.2265L24.0001 35.4289C23.9081 35.3369 23.7873 35.2913 23.6665 35.2913Z" fill="#29388D" stroke="#29388D" stroke-width="0.2"/>
</svg>
