<svg width="27" height="31" viewBox="0 0 27 31" fill="none" xmlns="http://www.w3.org/2000/svg">
<circle cx="13.5" cy="15.5" r="13.5" fill="#29388D"/>
<path d="M12.332 17.801C12.332 17.307 12.4143 16.8763 12.579 16.509C12.7437 16.1417 12.9463 15.8123 13.187 15.521C13.4403 15.2297 13.7127 14.9637 14.004 14.723C14.2953 14.4697 14.5677 14.2227 14.821 13.982C15.0743 13.7287 15.277 13.4627 15.429 13.184C15.5937 12.9053 15.676 12.5823 15.676 12.215C15.676 11.607 15.4353 11.113 14.954 10.733C14.4727 10.353 13.8077 10.163 12.959 10.163C12.199 10.163 11.5403 10.2897 10.983 10.543C10.4257 10.7963 9.95067 11.17 9.558 11.664L8.171 10.676C8.703 10.0047 9.38067 9.48533 10.204 9.118C11.0273 8.738 11.99 8.548 13.092 8.548C14.004 8.548 14.7957 8.68733 15.467 8.966C16.1383 9.232 16.6577 9.61833 17.025 10.125C17.405 10.619 17.595 11.2207 17.595 11.93C17.595 12.462 17.5127 12.918 17.348 13.298C17.1833 13.678 16.9743 14.0137 16.721 14.305C16.4677 14.5963 16.1953 14.8687 15.904 15.122C15.6253 15.3753 15.3593 15.6287 15.106 15.882C14.8527 16.1353 14.6437 16.414 14.479 16.718C14.3143 17.022 14.232 17.383 14.232 17.801H12.332ZM13.301 22.114C12.9463 22.114 12.6487 21.9937 12.408 21.753C12.18 21.5123 12.066 21.2273 12.066 20.898C12.066 20.5433 12.18 20.252 12.408 20.024C12.6487 19.796 12.9463 19.682 13.301 19.682C13.6557 19.682 13.947 19.796 14.175 20.024C14.403 20.252 14.517 20.5433 14.517 20.898C14.517 21.2273 14.403 21.5123 14.175 21.753C13.947 21.9937 13.6557 22.114 13.301 22.114Z" fill="white"/>
</svg>
