<svg width="38" height="38" viewBox="0 0 38 38" fill="none" xmlns="http://www.w3.org/2000/svg">
<g clip-path="url(#clip0_0_437)">
<path d="M19 38C29.4934 38 38 29.4934 38 19C38 8.50659 29.4934 0 19 0C8.50659 0 0 8.50659 0 19C0 29.4934 8.50659 38 19 38Z" fill="url(#paint0_linear_0_437)"/>
<path d="M22.84 9.5H15.16C13.6595 9.50198 12.221 10.0989 11.16 11.16C10.0989 12.221 9.50198 13.6595 9.5 15.16V22.84C9.50198 24.3405 10.0989 25.779 11.16 26.84C12.221 27.9011 13.6595 28.498 15.16 28.5H22.84C24.3407 28.4987 25.7796 27.9019 26.8408 26.8408C27.9019 25.7796 28.4987 24.3407 28.5 22.84V15.16C28.498 13.6595 27.9011 12.221 26.84 11.16C25.779 10.0989 24.3405 9.50198 22.84 9.5ZM26.59 22.84C26.59 23.8346 26.1949 24.7884 25.4916 25.4916C24.7884 26.1949 23.8346 26.59 22.84 26.59H15.16C14.1654 26.59 13.2116 26.1949 12.5083 25.4916C11.8051 24.7884 11.41 23.8346 11.41 22.84V15.16C11.41 14.1654 11.8051 13.2116 12.5083 12.5083C13.2116 11.8051 14.1654 11.41 15.16 11.41H22.84C23.8346 11.41 24.7884 11.8051 25.4916 12.5083C26.1949 13.2116 26.59 14.1654 26.59 15.16V22.84Z" fill="white"/>
<path d="M18.9995 14.0875C18.0272 14.087 17.0766 14.3749 16.268 14.9148C15.4593 15.4547 14.829 16.2223 14.4566 17.1205C14.0843 18.0187 13.9868 19.0071 14.1764 19.9608C14.3659 20.9144 14.8341 21.7904 15.5216 22.478C16.2091 23.1655 17.0851 23.6336 18.0388 23.8232C18.9924 24.0128 19.9809 23.9152 20.8791 23.5429C21.7773 23.1706 22.5449 22.5402 23.0847 21.7316C23.6246 20.9229 23.9125 19.9723 23.912 19C23.9107 17.6976 23.3927 16.4488 22.4717 15.5278C21.5507 14.6068 20.302 14.0888 18.9995 14.0875ZM18.9995 22C18.4062 22 17.8262 21.8241 17.3328 21.4944C16.8395 21.1648 16.455 20.6963 16.2279 20.1481C16.0008 19.5999 15.9414 18.9967 16.0572 18.4148C16.1729 17.8328 16.4587 17.2983 16.8782 16.8787C17.2978 16.4591 17.8323 16.1734 18.4143 16.0577C18.9962 15.9419 19.5994 16.0013 20.1476 16.2284C20.6958 16.4554 21.1643 16.84 21.4939 17.3333C21.8236 17.8267 21.9995 18.4067 21.9995 19C21.9995 19.7957 21.6835 20.5587 21.1209 21.1213C20.5582 21.684 19.7952 22 18.9995 22Z" fill="white"/>
<path d="M23.9416 15.3026C24.6126 15.3026 25.1566 14.7586 25.1566 14.0876C25.1566 13.4165 24.6126 12.8726 23.9416 12.8726C23.2705 12.8726 22.7266 13.4165 22.7266 14.0876C22.7266 14.7586 23.2705 15.3026 23.9416 15.3026Z" fill="white"/>
</g>
<defs>
<linearGradient id="paint0_linear_0_437" x1="19" y1="37.825" x2="19" y2="2.575" gradientUnits="userSpaceOnUse">
<stop stop-color="#E09B3D"/>
<stop offset="0.24" stop-color="#C74C4D"/>
<stop offset="0.65" stop-color="#C21975"/>
<stop offset="1" stop-color="#7024C4"/>
</linearGradient>
<clipPath id="clip0_0_437">
<rect width="38" height="38" fill="white"/>
</clipPath>
</defs>
</svg>
