<svg width="38" height="38" viewBox="0 0 38 38" fill="none" xmlns="http://www.w3.org/2000/svg">
<g clip-path="url(#clip0_0_502)">
<rect width="38" height="38" rx="5" fill="#0B69C7"/>
<path d="M19 38C29.4934 38 38 29.4934 38 19C38 8.50659 29.4934 0 19 0C8.50659 0 0 8.50659 0 19C0 29.4934 8.50659 38 19 38Z" fill="#0B69C7"/>
<path d="M14.7505 12.0925C14.751 12.606 14.5992 13.108 14.3143 13.5351C14.0293 13.9623 13.624 14.2953 13.1498 14.492C12.6755 14.6887 12.1535 14.7403 11.6499 14.6403C11.1463 14.5402 10.6837 14.293 10.3206 13.9299C9.95754 13.5669 9.71034 13.1043 9.61029 12.6006C9.51024 12.097 9.56184 11.5751 9.75856 11.1008C9.95528 10.6265 10.2883 10.2212 10.7154 9.9363C11.1425 9.65134 11.6446 9.49951 12.158 9.5C12.8454 9.50066 13.5044 9.77401 13.9905 10.2601C14.4765 10.7461 14.7499 11.4051 14.7505 12.0925Z" fill="white"/>
<path d="M13.5231 15.7675H10.7931C10.4383 15.7675 10.1506 16.0551 10.1506 16.41V27.8575C10.1506 28.2123 10.4383 28.5 10.7931 28.5H13.5231C13.878 28.5 14.1656 28.2123 14.1656 27.8575V16.41C14.1656 16.0551 13.878 15.7675 13.5231 15.7675Z" fill="white"/>
<path d="M28.4377 22.3675V27.91C28.4377 28.0664 28.3755 28.2165 28.2649 28.3271C28.1542 28.4378 28.0041 28.5 27.8477 28.5H24.9177C24.7612 28.5 24.6111 28.4378 24.5005 28.3271C24.3898 28.2165 24.3277 28.0664 24.3277 27.91V22.54C24.3277 21.7375 24.5602 19.04 22.2327 19.04C20.4277 19.04 20.0602 20.895 19.9827 21.7275V27.9225C19.9794 28.0759 19.9165 28.222 19.8073 28.3299C19.6981 28.4377 19.5511 28.4987 19.3977 28.5H16.5627C16.4851 28.5003 16.4082 28.4853 16.3365 28.4557C16.2648 28.4262 16.1996 28.3827 16.1447 28.3279C16.0899 28.273 16.0464 28.2079 16.0169 28.1361C15.9874 28.0644 15.9723 27.9875 15.9727 27.91V16.36C15.9723 16.2823 15.9874 16.2053 16.0169 16.1334C16.0464 16.0615 16.0898 15.9962 16.1446 15.9411C16.1994 15.8861 16.2646 15.8424 16.3363 15.8126C16.408 15.7828 16.485 15.7675 16.5627 15.7675H19.3977C19.4763 15.7661 19.5544 15.7805 19.6275 15.8097C19.7005 15.8388 19.767 15.8823 19.8231 15.9374C19.8792 15.9926 19.9237 16.0583 19.9541 16.1309C19.9845 16.2034 20.0002 16.2813 20.0002 16.36V17.36C20.6702 16.36 21.6652 15.58 23.7827 15.58C28.4652 15.5775 28.4377 19.96 28.4377 22.3675Z" fill="white"/>
</g>
<defs>
<clipPath id="clip0_0_502">
<rect width="38" height="38" fill="white"/>
</clipPath>
</defs>
</svg>
